<svg xmlns="http://www.w3.org/2000/svg" viewBox="0 0 564 172"><g data-name="レイヤー 2"><path d="M531.09 37.6c-14.44 0-24.09 7.2-29.09 19.8V40h-20v94h20V88.8c0-21.6 8.4-33.8 23-33.8 12.8 0 19 7.8 19 22.6V134h20V76.6c0-25.2-12.44-39-32.91-39zM430.1 39.43c23.37 24.48 23.76 71-.17 95.76 49.5-7.41 49.32-88.46.17-95.76z"/><path d="M391.1 39.43c23.37 24.48 23.76 71-.17 95.76 49.5-7.41 49.32-88.46.17-95.76zM378.3 55.3a43.23 43.23 0 00-16.92-12.87 50 50 0 00-19.79-3.9c-27.8 0-47.4 20.2-47.4 49s19.2 48.6 47 48.6a50.45 50.45 0 0019.81-3.86 43.9 43.9 0 0017.2-12.88c6.74-8.32 10.62-19.28 10.62-31.86-.03-12.77-3.82-23.86-10.52-32.23zM344 119.41c-.93.08-1.87.12-2.84.12-16.8 0-27.2-12-27.2-31.4v-.8c0-19.8 10.8-32.2 27.6-32.2.95 0 1.89 0 2.8.12a24.75 24.75 0 0117.15 8.49c4.78 5.58 7.45 13.65 7.45 23.59v.8c0 9.68-2.74 17.58-7.64 23a25.52 25.52 0 01-17.32 8.28zM244.67 110.19L219.55 40H199l36.52 92.92C228.09 152.19 225.08 155 212 155h-9v17h10c22.53 0 30.71-8.77 39.28-31.11L288.34 40H267.6zM149.4 120c-16 0-26.2-9.8-27.4-26h71v-7.2c0-29.8-16.6-48.4-44.4-48.4-26.51 0-45.78 19.77-46.19 48.46-.42 29.31 23.53 51.31 52.73 48.91 20.61-1.7 32.39-12.57 38.26-26L176 103c-3.6 9.2-10.6 17-26.6 17zm-1.61-65.8c14.8 0 23.8 8.6 24.6 24.8h-51.2c2-15.4 12.4-24.8 26.6-24.8zM49.48 38.6c-13.23 0-23.86 5.8-30.48 15.6V0H0v135h19v-13.8C25.62 131 36.25 137 49.28 137 74 137 92 117.8 92 87.4v-.2c0-30.4-18.25-48.6-42.52-48.6zM71 87.53c0 20.32-10.76 32.08-26.5 32.08-16.74 0-26.5-12.55-26.5-31.08v-1.6c0-18.73 10.16-31.88 26.5-31.88C60.64 55.05 71 66 71 86.13z"/></g></svg>